# xmcd
#
# Track frame offsets: 
#        150
#        23017
#        45546
#        62323
#        83511
#        101051
#        128313
#        143736
#        173866
#        197398
#        220942
#        246580
#        273862
#        293730
#        311206
#        327909
#
# Disc length: 4704 seconds
#
# Revision: 3
# Processed by: cddbd v1.5.2PL0 Copyright (c) Steve Scherf et al.
# Submitted via: ExactAudioCopy v0.95b4
#
DISCID=d8125e10
DTITLE=Various Artist - Armada Lounge CD 2
DYEAR=1900
DGENRE=
TTITLE0=01 - Chris Wonderful - History
TTITLE1=02 - Max Graham - Don't Leave Yet
TTITLE2=03 - Zara feat. Jorge Nava - Broken (Chill Out Mix)
TTITLE3=04 - Robert Nickson - Russell's Teapot
TTITLE4=05 - tyDi feat. Tania Zygar - Vanilla (Acoustic Mix)
TTITLE5=06 - Faruk Sabanci - As Faces Fade (Domenico Cascarino and Luca 
TTITLE5=Lombardi Chill Out Remix)
TTITLE6=07 - John O'Callaghan and Audrey Gallagher - Bring Back The Sun 
TTITLE6=(Ambient Mix)
TTITLE7=08 - ATB and Armin van Buuren - Vice Versa
TTITLE8=09 - Nadia Ali - Fantasy
TTITLE9=10 - Signum - Cinematical
TTITLE10=11 - Josh Gabriel presents Winter Kills - Oaklahoma Town
TTITLE11=12 - Way Out West - One Bright Night
TTITLE12=13 - Orjan Nilsen - Nocturnal
TTITLE13=14 - Aly and Fila feat. Sue McLaren - Still
TTITLE14=15 - Heatbeat - Shawarma (Chill Out Mix)
TTITLE15=16 - EDX - Warped Minds
EXTD=
EXTT0=
EXTT1=
EXTT2=
EXTT3=
EXTT4=
EXTT5=
EXTT6=
EXTT7=
EXTT8=
EXTT9=
EXTT10=
EXTT11=
EXTT12=
EXTT13=
EXTT14=
EXTT15=
PLAYORDER=
